Coordinates
nRows=267
nColumns=2
inDegrees=yes
endheader
time	ankle_angle_r	
3.19355	  9.552002	
3.22681	  9.521484	
3.26008	  9.543224	
3.29335	  9.567261	
3.32661	  9.536743	
3.35988	  9.557902	
3.39315	  9.562485	
3.42641	  9.526999	
3.45968	  9.547033	
3.49294	  9.567261	
3.52621	  9.531581	
3.55948	  9.582001	
3.59274	  9.582520	
3.62601	  9.546550	
3.65927	  9.588069	
3.69254	  9.567261	
3.72581	  9.552002	
3.75907	  9.576680	
3.79234	  9.597778	
3.8256	  9.552002	
3.85887	  9.585520	
3.89214	  9.582520	
3.9254	  9.549389	
3.95867	  9.573680	
3.99194	  9.578230	
4.0252	  9.552002	
4.05847	  9.582520	
4.09173	  9.567261	
4.125	  9.558905	
4.15827	  9.597778	
4.19153	  9.605941	
4.2248	  9.589712	
4.25806	  9.621006	
4.29133	  9.651427	
4.3246	  9.559778	
4.35786	  9.613037	
4.39113	  9.620526	
4.4244	  9.574746	
4.45766	  9.628296	
4.49093	  9.651521	
4.52419	  9.620233	
4.55746	  9.681171	
4.59073	  9.719849	
4.62399	  9.628296	
4.65726	  9.606228	
4.69052	  9.636843	
4.72379	  9.589135	
4.75706	  9.658813	
4.79032	  9.645968	
4.82359	  9.621970	
4.85685	  9.640754	
4.89012	  9.631290	
4.92339	  9.640367	
4.95665	  9.603717	
4.98992	  9.662388	
5.02319	  9.607291	
5.05645	  9.683682	
5.08972	  9.606088	
5.12298	  9.603233	
5.15625	  9.587061	
5.18952	  9.566733	
5.22278	  9.536743	
5.25605	  9.577451	
5.28931	  9.536743	
5.32258	  9.536743	
5.35585	  9.572962	
5.38911	  9.527379	
5.42238	  9.530655	
5.45565	  9.547513	
5.48891	  9.543219	
5.52218	  9.536743	
5.55544	  9.567261	
5.58871	  9.525586	
5.62198	  9.506226	
5.65524	  9.552002	
5.68851	  9.506226	
5.72177	  9.521484	
5.75504	  9.525103	
5.78831	  9.482752	
5.82157	  9.509650	
5.85484	  9.548674	
5.8881	  9.494199	
5.92137	  9.518350	
5.95464	  9.527561	
5.9879	  9.546119	
6.02117	  9.506226	
6.05444	  9.582520	
6.0877	  9.511529	
6.12097	  9.521484	
6.15423	  9.541659	
6.1875	  9.523846	
6.22077	  9.510756	
6.25403	  9.554170	
6.2873	  9.538815	
6.32056	  9.519509	
6.35383	  9.555758	
6.3871	  9.533180	
6.42036	  9.536743	
6.45363	  9.567261	
6.4869	  9.550510	
6.52016	  9.524274	
6.55343	  9.564665	
6.58669	  9.550800	
6.61996	  9.536743	
6.65323	  9.583528	
6.68649	  9.522395	
6.71976	  9.567261	
6.75302	  9.567979	
6.78629	  9.537986	
6.81956	  9.583569	
6.85282	  9.567261	
6.88609	  9.536743	
6.91935	  9.567495	
6.95262	  9.612624	
6.98589	  9.552084	
7.01915	  9.567205	
7.05242	  9.582520	
7.08569	  9.567261	
7.11895	  9.583211	
7.15222	  9.567261	
7.18548	  9.551463	
7.21875	  9.550731	
7.25202	  9.582520	
7.28528	  9.519826	
7.31855	  9.581594	
7.35181	  9.568283	
7.38508	  9.506226	
7.41835	  9.582520	
7.45161	  9.579894	
7.48488	  9.567261	
7.51815	  9.568767	
7.55141	  9.565659	
7.58468	  9.552002	
7.61794	  9.538539	
7.65121	  9.561583	
7.68448	  9.527452	
7.71774	  9.571433	
7.75101	  9.549819	
7.78427	  9.503946	
7.81754	  9.508602	
7.85081	  9.567261	
7.88407	  9.534174	
7.91734	  9.536743	
7.9506	  9.579757	
7.98387	  9.460449	
8.01714	  9.481621	
8.0504	  9.539796	
8.08367	  9.509376	
8.11694	  9.478954	
8.1502	  9.530057	
8.18347	  9.543623	
8.21673	  9.563725	
8.25	  9.525118	
8.28327	  9.548272	
8.31653	  9.525311	
8.3498	  9.498813	
8.38306	  9.510245	
8.41633	  9.578403	
8.4496	  9.464663	
8.48286	  9.510535	
8.51613	  9.517077	
8.5494	  9.510729	
8.58266	  9.515426	
8.61593	  9.475708	
8.64919	  9.465242	
8.68246	  9.450080	
8.71573	  9.506226	
8.74899	  9.521484	
8.78226	  9.475708	
8.81552	  9.521484	
8.84879	  9.465822	
8.88206	  9.450661	
8.91532	  9.481275	
8.94859	  9.456517	
8.98185	  9.460449	
9.01512	  9.527341	
9.04839	  9.521484	
9.08165	  9.500175	
9.11492	  9.521484	
9.14819	  9.466693	
9.18145	  9.494729	
9.21472	  9.497404	
9.24798	  9.499692	
9.28125	  9.495599	
9.31452	  9.567261	
9.34778	  9.445190	
9.38105	  9.493803	
9.41431	  9.521484	
9.44758	  9.490967	
9.48085	  9.483756	
9.51411	  9.552002	
9.54738	  9.528888	
9.58065	  9.490967	
9.61391	  9.529081	
9.64718	  9.521484	
9.68044	  9.528953	
9.71371	  9.544630	
9.74698	  9.514210	
9.78024	  9.520582	
9.81351	  9.521484	
9.84677	  9.497952	
9.88004	  9.581037	
9.91331	  9.536743	
9.94657	  9.519615	
9.97984	  9.558600	
10.0131	  9.519228	
10.0464	  9.560856	
10.0796	  9.582520	
10.1129	  9.594942	
10.1462	  9.552002	
10.1794	  9.567261	
10.2127	  9.552002	
10.246	  9.506226	
10.2792	  9.607309	
10.3125	  9.592147	
10.3458	  9.567261	
10.379	  9.582520	
10.4123	  9.577943	
10.4456	  9.562490	
10.4788	  9.572409	
10.5121	  9.582520	
10.5454	  9.557352	
10.5786	  9.592235	
10.6119	  9.613037	
10.6452	  9.567261	
10.6784	  9.603902	
10.7117	  9.604095	
10.745	  9.530233	
10.7782	  9.567261	
10.8115	  9.613037	
10.8448	  9.582520	
10.878	  9.597778	
10.9113	  9.601669	
10.9446	  9.536743	
10.9778	  9.586217	
11.0111	  9.567261	
11.0444	  9.579016	
11.0776	  9.552002	
11.1109	  9.613037	
11.1442	  9.555216	
11.1774	  9.591543	
11.2107	  9.582520	
11.244	  9.554926	
11.2772	  9.594951	
11.3105	  9.521484	
11.3437	  9.549368	
11.377	  9.607963	
11.4103	  9.562380	
11.4435	  9.534399	
11.4768	  9.538990	
11.5101	  9.534593	
11.5433	  9.536743	
11.5766	  9.580563	
11.6099	  9.538604	
11.6431	  9.550239	
11.6764	  9.577518	
11.7097	  9.532032	
11.7429	  9.521484	
11.7762	  9.536743	
11.8095	  9.521484	
11.8427	  9.537927	
11.876	  9.553089	
11.9093	  9.536743	
11.9425	  9.490073	
11.9758	  9.551205	
12.0091	  9.507627	
12.0423	  9.520277	
